<svg xmlns="http://www.w3.org/2000/svg" version="1.1" viewBox="0 0 32 32">
  <path d="M31,15.505188V8.5107422H1v6.9944458l10.9301758,4.3600464v-1.2045898c0-0.5522461,0.4477539-1,1-1h6.1396484    c0.5522461,0,1,0.4477539,1,1v1.2045898L31,15.505188z" fill="#1d74bd"/>
  <path d="M24.6064453,9.4018555c-0.5522461,0-1-0.4477539-1-1V3.8730469C23.6064453,3.6674805,23.4389648,3.5,23.2333984,3.5    H8.7666016c-0.2055664,0-0.3730469,0.1674805-0.3730469,0.3730469v4.5288086c0,0.5522461-0.4477539,1-1,1s-1-0.4477539-1-1    V3.8730469C6.3935547,2.5644531,7.4580078,1.5,8.7666016,1.5h14.4667969c1.3085938,0,2.3730469,1.0644531,2.3730469,2.3730469    v4.5288086C25.6064453,8.9541016,25.1586914,9.4018555,24.6064453,9.4018555z" fill="#1d74bd"/>
  <path d="M19.4404297,22.2695313c-0.1196289,0.0478516-0.2456055,0.0712891-0.3706055,0.0712891    c-0.1367188,0-0.269043-0.0379639-0.3956299-0.0932007v2.6704102h-5.3483887V22.253418    c-0.2417603,0.1050415-0.5166626,0.1162109-0.7662354,0.0161133L1,17.6583862V30.5h30V17.6583862L19.4404297,22.2695313z" fill="#f05a29"/>
</svg>
